<svg width="85" height="85" viewBox="0 0 85 85" fill="none" xmlns="http://www.w3.org/2000/svg">
<rect x="0.5" y="0.5" width="84" height="84" fill="#EE4E1C" stroke="#EE4E1C"/>
<rect x="0.5" y="51.5" width="84" height="33" fill="white" stroke="#EE4E1C"/>
<path d="M28.9756 7.41406V18.1455C28.9756 19.4274 28.8861 20.3835 28.707 21.0137C28.528 21.7298 28.2236 22.335 27.7939 22.8291C26.9561 23.8102 25.846 24.3008 24.4639 24.3008C23.4183 24.3008 22.4408 24.0286 21.5312 23.4844L22.7559 21.3467C23.3646 21.7549 23.9339 21.959 24.4639 21.959C25.2087 21.959 25.7243 21.6761 26.0107 21.1104C26.3115 20.5446 26.4619 19.5563 26.4619 18.1455V7.41406H28.9756ZM32.123 15.6318C32.123 13.2972 32.9788 11.292 34.6904 9.61621C36.3949 7.94043 38.443 7.10254 40.835 7.10254C43.1982 7.10254 45.2249 7.94759 46.915 9.6377C48.6123 11.3278 49.4609 13.3581 49.4609 15.7285C49.4609 18.1133 48.6087 20.1364 46.9043 21.7979C45.1927 23.4665 43.1266 24.3008 40.7061 24.3008C38.5648 24.3008 36.6419 23.5596 34.9375 22.0771C33.0612 20.4372 32.123 18.2887 32.123 15.6318ZM34.6475 15.6641C34.6475 17.4974 35.2633 19.0049 36.4951 20.1865C37.7197 21.3682 39.1341 21.959 40.7383 21.959C42.4785 21.959 43.9466 21.3574 45.1426 20.1543C46.3385 18.9368 46.9365 17.4544 46.9365 15.707C46.9365 13.9382 46.3457 12.4557 45.1641 11.2598C43.9896 10.0566 42.5358 9.45508 40.8027 9.45508C39.0768 9.45508 37.6195 10.0566 36.4307 11.2598C35.2419 12.4486 34.6475 13.9167 34.6475 15.6641ZM61.7607 9.7666H55.1113V13.752H61.5674V16.1045H55.1113V21.6475H61.7607V24H52.6084V7.41406H61.7607V9.7666ZM15.1289 37.9316L20.2637 45H17.2021L12.4648 38.2109H12.0137V45H9.51074V28.4141H12.4434C14.6348 28.4141 16.2174 28.8258 17.1914 29.6494C18.2656 30.5661 18.8027 31.7764 18.8027 33.2803C18.8027 34.4548 18.4661 35.4645 17.793 36.3096C17.1198 37.1546 16.2318 37.6953 15.1289 37.9316ZM12.0137 36.0303H12.8086C15.179 36.0303 16.3643 35.1243 16.3643 33.3125C16.3643 31.6152 15.2113 30.7666 12.9053 30.7666H12.0137V36.0303ZM32.5098 40.9717H25.4092L23.5615 45H20.8652L29.0723 27.3721L36.9893 45H34.25L32.5098 40.9717ZM31.4893 38.6191L29.0293 32.9795L26.4512 38.6191H31.4893ZM39.0732 45V27.2861L51.1689 39.9404V28.4141H53.6719V46.0098L41.5762 33.3877V45H39.0732ZM65.9395 30.7666H60.1602V34.752H65.7354V37.1045H60.1602V45H57.6572V28.4141H65.9395V30.7666ZM73.4268 30.7666V45H70.9238V30.7666H67.1104V28.4141H77.2295V30.7666H73.4268Z" fill="white"/>
<path d="M14.9958 66H14.2998V64.884H14.2758C14.0758 65.3 13.7838 65.62 13.3998 65.844C13.0238 66.06 12.6038 66.168 12.1398 66.168C11.7478 66.168 11.4118 66.112 11.1318 66C10.8598 65.896 10.6358 65.744 10.4598 65.544C10.2918 65.344 10.1678 65.1 10.0878 64.812C10.0078 64.524 9.96777 64.196 9.96777 63.828V59.808H10.7238V63.84C10.7398 64.4 10.8678 64.824 11.1078 65.112C11.3558 65.4 11.7798 65.544 12.3798 65.544C12.7078 65.544 12.9878 65.476 13.2198 65.34C13.4518 65.196 13.6438 65.008 13.7958 64.776C13.9478 64.544 14.0598 64.28 14.1318 63.984C14.2038 63.68 14.2398 63.372 14.2398 63.06V59.808H14.9958V66ZM18.1171 62.784L15.8971 59.808H16.8451L18.6091 62.16L20.3371 59.808H21.2851L19.0531 62.772L21.4651 66H20.5051L18.5611 63.396L16.6531 66H15.7171L18.1171 62.784ZM28.2303 58.068C27.9183 58.068 27.6503 58.164 27.4263 58.356C27.2023 58.54 27.0903 58.812 27.0903 59.172C27.0903 59.324 27.1223 59.48 27.1863 59.64C27.2503 59.792 27.3303 59.944 27.4263 60.096C27.5223 60.24 27.6263 60.384 27.7383 60.528C27.8503 60.664 27.9543 60.788 28.0503 60.9C28.2023 60.804 28.3543 60.7 28.5063 60.588C28.6663 60.476 28.8103 60.352 28.9383 60.216C29.0663 60.072 29.1703 59.916 29.2503 59.748C29.3303 59.572 29.3703 59.38 29.3703 59.172C29.3703 58.812 29.2583 58.54 29.0343 58.356C28.8103 58.164 28.5423 58.068 28.2303 58.068ZM30.4023 64.884C30.0903 65.276 29.7183 65.588 29.2863 65.82C28.8543 66.052 28.3863 66.168 27.8823 66.168C27.5143 66.168 27.1703 66.116 26.8503 66.012C26.5383 65.908 26.2663 65.756 26.0343 65.556C25.8023 65.356 25.6183 65.108 25.4823 64.812C25.3543 64.516 25.2903 64.172 25.2903 63.78C25.2903 63.476 25.3543 63.196 25.4823 62.94C25.6103 62.684 25.7743 62.452 25.9743 62.244C26.1823 62.036 26.4103 61.848 26.6583 61.68C26.9063 61.512 27.1503 61.364 27.3903 61.236C27.2703 61.084 27.1463 60.932 27.0183 60.78C26.8983 60.62 26.7863 60.456 26.6823 60.288C26.5863 60.12 26.5023 59.944 26.4303 59.76C26.3663 59.576 26.3343 59.38 26.3343 59.172C26.3343 58.908 26.3823 58.672 26.4783 58.464C26.5823 58.248 26.7183 58.064 26.8863 57.912C27.0623 57.76 27.2623 57.644 27.4863 57.564C27.7183 57.476 27.9663 57.432 28.2303 57.432C28.4943 57.432 28.7383 57.476 28.9623 57.564C29.1943 57.644 29.3943 57.76 29.5623 57.912C29.7383 58.064 29.8743 58.248 29.9703 58.464C30.0743 58.672 30.1263 58.908 30.1263 59.172C30.1263 59.436 30.0783 59.676 29.9823 59.892C29.8863 60.108 29.7583 60.304 29.5983 60.48C29.4463 60.656 29.2703 60.82 29.0703 60.972C28.8703 61.116 28.6623 61.256 28.4463 61.392L30.3183 63.648C30.4223 63.44 30.4903 63.232 30.5223 63.024C30.5543 62.808 30.5703 62.536 30.5703 62.208H31.3263C31.3263 62.448 31.2903 62.76 31.2183 63.144C31.1543 63.52 31.0223 63.892 30.8223 64.26L32.2623 66H31.3143L30.4023 64.884ZM27.7983 61.728C27.5903 61.84 27.3823 61.964 27.1743 62.1C26.9663 62.236 26.7783 62.392 26.6103 62.568C26.4423 62.744 26.3063 62.94 26.2023 63.156C26.0983 63.364 26.0463 63.596 26.0463 63.852C26.0463 64.1 26.0983 64.328 26.2023 64.536C26.3063 64.744 26.4423 64.924 26.6103 65.076C26.7863 65.228 26.9863 65.344 27.2103 65.424C27.4343 65.504 27.6663 65.544 27.9063 65.544C28.3383 65.544 28.7223 65.428 29.0583 65.196C29.4023 64.956 29.6943 64.664 29.9343 64.32L27.7983 61.728ZM36.218 59.808H36.914V60.984H36.938C37.114 60.552 37.398 60.22 37.79 59.988C38.19 59.748 38.642 59.628 39.146 59.628C39.618 59.628 40.026 59.716 40.37 59.892C40.722 60.068 41.014 60.308 41.246 60.612C41.478 60.908 41.65 61.256 41.762 61.656C41.874 62.048 41.93 62.464 41.93 62.904C41.93 63.344 41.874 63.764 41.762 64.164C41.65 64.556 41.478 64.904 41.246 65.208C41.014 65.504 40.722 65.74 40.37 65.916C40.026 66.084 39.618 66.168 39.146 66.168C38.922 66.168 38.698 66.14 38.474 66.084C38.25 66.028 38.042 65.944 37.85 65.832C37.658 65.72 37.486 65.58 37.334 65.412C37.19 65.244 37.078 65.048 36.998 64.824H36.974V68.28H36.218V59.808ZM41.174 62.904C41.174 62.584 41.134 62.268 41.054 61.956C40.982 61.636 40.862 61.352 40.694 61.104C40.534 60.856 40.326 60.656 40.07 60.504C39.814 60.344 39.506 60.264 39.146 60.264C38.73 60.264 38.382 60.336 38.102 60.48C37.822 60.624 37.598 60.816 37.43 61.056C37.262 61.296 37.142 61.576 37.07 61.896C37.006 62.216 36.974 62.552 36.974 62.904C36.974 63.224 37.01 63.544 37.082 63.864C37.162 64.176 37.286 64.456 37.454 64.704C37.63 64.952 37.854 65.156 38.126 65.316C38.406 65.468 38.746 65.544 39.146 65.544C39.506 65.544 39.814 65.468 40.07 65.316C40.326 65.156 40.534 64.952 40.694 64.704C40.862 64.456 40.982 64.176 41.054 63.864C41.134 63.544 41.174 63.224 41.174 62.904ZM43.1087 59.808H43.8047V61.26H43.8287C44.0207 60.756 44.3167 60.368 44.7167 60.096C45.1247 59.824 45.6087 59.7 46.1687 59.724V60.48C45.8247 60.464 45.5127 60.512 45.2327 60.624C44.9527 60.728 44.7087 60.88 44.5007 61.08C44.3007 61.28 44.1447 61.52 44.0327 61.8C43.9207 62.072 43.8647 62.372 43.8647 62.7V66H43.1087V59.808ZM49.2989 60.264C48.9389 60.264 48.6229 60.34 48.3509 60.492C48.0789 60.644 47.8509 60.844 47.6669 61.092C47.4909 61.34 47.3549 61.624 47.2589 61.944C47.1709 62.256 47.1269 62.576 47.1269 62.904C47.1269 63.232 47.1709 63.556 47.2589 63.876C47.3549 64.188 47.4909 64.468 47.6669 64.716C47.8509 64.964 48.0789 65.164 48.3509 65.316C48.6229 65.468 48.9389 65.544 49.2989 65.544C49.6589 65.544 49.9749 65.468 50.2469 65.316C50.5189 65.164 50.7429 64.964 50.9189 64.716C51.1029 64.468 51.2389 64.188 51.3269 63.876C51.4229 63.556 51.4709 63.232 51.4709 62.904C51.4709 62.576 51.4229 62.256 51.3269 61.944C51.2389 61.624 51.1029 61.34 50.9189 61.092C50.7429 60.844 50.5189 60.644 50.2469 60.492C49.9749 60.34 49.6589 60.264 49.2989 60.264ZM49.2989 59.628C49.7709 59.628 50.1869 59.716 50.5469 59.892C50.9149 60.068 51.2229 60.304 51.4709 60.6C51.7189 60.896 51.9069 61.244 52.0349 61.644C52.1629 62.036 52.2269 62.456 52.2269 62.904C52.2269 63.352 52.1629 63.776 52.0349 64.176C51.9069 64.568 51.7189 64.912 51.4709 65.208C51.2229 65.504 50.9149 65.74 50.5469 65.916C50.1869 66.084 49.7709 66.168 49.2989 66.168C48.8269 66.168 48.4069 66.084 48.0389 65.916C47.6789 65.74 47.3749 65.504 47.1269 65.208C46.8789 64.912 46.6909 64.568 46.5629 64.176C46.4349 63.776 46.3709 63.352 46.3709 62.904C46.3709 62.456 46.4349 62.036 46.5629 61.644C46.6909 61.244 46.8789 60.896 47.1269 60.6C47.3749 60.304 47.6789 60.068 48.0389 59.892C48.4069 59.716 48.8269 59.628 49.2989 59.628ZM58.7989 66H58.1029V64.824H58.0789C57.9989 65.024 57.8789 65.208 57.7189 65.376C57.5669 65.544 57.3909 65.688 57.1909 65.808C56.9909 65.92 56.7749 66.008 56.5429 66.072C56.3189 66.136 56.0949 66.168 55.8709 66.168C55.3989 66.168 54.9869 66.084 54.6349 65.916C54.2909 65.74 54.0029 65.504 53.7709 65.208C53.5389 64.904 53.3669 64.556 53.2549 64.164C53.1429 63.764 53.0869 63.344 53.0869 62.904C53.0869 62.464 53.1429 62.048 53.2549 61.656C53.3669 61.256 53.5389 60.908 53.7709 60.612C54.0029 60.308 54.2909 60.068 54.6349 59.892C54.9869 59.716 55.3989 59.628 55.8709 59.628C56.1029 59.628 56.3269 59.656 56.5429 59.712C56.7669 59.768 56.9749 59.856 57.1669 59.976C57.3589 60.088 57.5269 60.228 57.6709 60.396C57.8229 60.564 57.9389 60.76 58.0189 60.984H58.0429V57.432H58.7989V66ZM53.8429 62.904C53.8429 63.224 53.8789 63.544 53.9509 63.864C54.0309 64.176 54.1509 64.456 54.3109 64.704C54.4789 64.952 54.6909 65.156 54.9469 65.316C55.2029 65.468 55.5109 65.544 55.8709 65.544C56.2709 65.544 56.6069 65.468 56.8789 65.316C57.1589 65.156 57.3829 64.952 57.5509 64.704C57.7269 64.456 57.8509 64.176 57.9229 63.864C58.0029 63.544 58.0429 63.224 58.0429 62.904C58.0429 62.584 58.0029 62.268 57.9229 61.956C57.8509 61.636 57.7269 61.352 57.5509 61.104C57.3829 60.856 57.1589 60.656 56.8789 60.504C56.6069 60.344 56.2709 60.264 55.8709 60.264C55.5109 60.264 55.2029 60.344 54.9469 60.504C54.6909 60.656 54.4789 60.856 54.3109 61.104C54.1509 61.352 54.0309 61.636 53.9509 61.956C53.8789 62.268 53.8429 62.584 53.8429 62.904ZM65.2575 66H64.5615V64.884H64.5375C64.3375 65.3 64.0455 65.62 63.6615 65.844C63.2855 66.06 62.8655 66.168 62.4015 66.168C62.0095 66.168 61.6735 66.112 61.3935 66C61.1215 65.896 60.8975 65.744 60.7215 65.544C60.5535 65.344 60.4295 65.1 60.3495 64.812C60.2695 64.524 60.2295 64.196 60.2295 63.828V59.808H60.9855V63.84C61.0015 64.4 61.1295 64.824 61.3695 65.112C61.6175 65.4 62.0415 65.544 62.6415 65.544C62.9695 65.544 63.2495 65.476 63.4815 65.34C63.7135 65.196 63.9055 65.008 64.0575 64.776C64.2095 64.544 64.3215 64.28 64.3935 63.984C64.4655 63.68 64.5015 63.372 64.5015 63.06V59.808H65.2575V66ZM71.0548 61.752C70.9508 61.288 70.7588 60.924 70.4788 60.66C70.1988 60.396 69.8068 60.264 69.3028 60.264C68.9428 60.264 68.6268 60.34 68.3548 60.492C68.0828 60.644 67.8548 60.844 67.6708 61.092C67.4948 61.34 67.3588 61.624 67.2628 61.944C67.1748 62.256 67.1308 62.576 67.1308 62.904C67.1308 63.232 67.1748 63.556 67.2628 63.876C67.3588 64.188 67.4948 64.468 67.6708 64.716C67.8548 64.964 68.0828 65.164 68.3548 65.316C68.6268 65.468 68.9428 65.544 69.3028 65.544C69.5348 65.544 69.7548 65.5 69.9628 65.412C70.1708 65.324 70.3548 65.204 70.5148 65.052C70.6748 64.892 70.8068 64.704 70.9108 64.488C71.0148 64.272 71.0788 64.036 71.1028 63.78H71.8588C71.7548 64.532 71.4788 65.12 71.0308 65.544C70.5828 65.96 70.0068 66.168 69.3028 66.168C68.8308 66.168 68.4108 66.084 68.0428 65.916C67.6828 65.74 67.3788 65.504 67.1308 65.208C66.8828 64.912 66.6948 64.568 66.5668 64.176C66.4388 63.776 66.3748 63.352 66.3748 62.904C66.3748 62.456 66.4388 62.036 66.5668 61.644C66.6948 61.244 66.8828 60.896 67.1308 60.6C67.3788 60.304 67.6828 60.068 68.0428 59.892C68.4108 59.716 68.8308 59.628 69.3028 59.628C69.9668 59.628 70.5268 59.804 70.9828 60.156C71.4468 60.508 71.7228 61.04 71.8108 61.752H71.0548ZM74.1095 59.808H75.3695V60.444H74.1095V64.62C74.1095 64.868 74.1415 65.064 74.2055 65.208C74.2775 65.344 74.4495 65.42 74.7215 65.436C74.9375 65.436 75.1535 65.424 75.3695 65.4V66.036C75.2575 66.036 75.1455 66.04 75.0335 66.048C74.9215 66.056 74.8095 66.06 74.6975 66.06C74.1935 66.06 73.8415 65.964 73.6415 65.772C73.4415 65.572 73.3455 65.208 73.3535 64.68V60.444H72.2735V59.808H73.3535V57.948H74.1095V59.808ZM27.088 72.808H28.348V73.444H27.088V77.62C27.088 77.868 27.12 78.064 27.184 78.208C27.256 78.344 27.428 78.42 27.7 78.436C27.916 78.436 28.132 78.424 28.348 78.4V79.036C28.236 79.036 28.124 79.04 28.012 79.048C27.9 79.056 27.788 79.06 27.676 79.06C27.172 79.06 26.82 78.964 26.62 78.772C26.42 78.572 26.324 78.208 26.332 77.68V73.444H25.252V72.808H26.332V70.948H27.088V72.808ZM29.4268 70.432H30.1828V73.876H30.2068C30.3508 73.5 30.6068 73.2 30.9748 72.976C31.3428 72.744 31.7468 72.628 32.1868 72.628C32.6188 72.628 32.9788 72.684 33.2668 72.796C33.5628 72.908 33.7988 73.068 33.9748 73.276C34.1508 73.476 34.2748 73.724 34.3468 74.02C34.4188 74.316 34.4548 74.648 34.4548 75.016V79H33.6988V75.136C33.6988 74.872 33.6748 74.628 33.6268 74.404C33.5788 74.172 33.4948 73.972 33.3748 73.804C33.2548 73.636 33.0908 73.504 32.8828 73.408C32.6828 73.312 32.4308 73.264 32.1268 73.264C31.8228 73.264 31.5508 73.32 31.3108 73.432C31.0788 73.536 30.8788 73.684 30.7108 73.876C30.5508 74.06 30.4228 74.284 30.3268 74.548C30.2388 74.804 30.1908 75.084 30.1828 75.388V79H29.4268V70.432ZM35.8961 70.432H36.6521V71.644H35.8961V70.432ZM35.8961 72.808H36.6521V79H35.8961V72.808ZM38.0869 72.808H38.8429V73.876H38.8669C39.0109 73.5 39.2669 73.2 39.6349 72.976C40.0029 72.744 40.4069 72.628 40.8469 72.628C41.2789 72.628 41.6389 72.684 41.9269 72.796C42.2229 72.908 42.4589 73.068 42.6349 73.276C42.8109 73.476 42.9349 73.724 43.0069 74.02C43.0789 74.316 43.1149 74.648 43.1149 75.016V79H42.3589V75.136C42.3589 74.872 42.3349 74.628 42.2869 74.404C42.2389 74.172 42.1549 73.972 42.0349 73.804C41.9149 73.636 41.7509 73.504 41.5429 73.408C41.3429 73.312 41.0909 73.264 40.7869 73.264C40.4829 73.264 40.2109 73.32 39.9709 73.432C39.7389 73.536 39.5389 73.684 39.3709 73.876C39.2109 74.06 39.0829 74.284 38.9869 74.548C38.8989 74.804 38.8509 75.084 38.8429 75.388V79H38.0869V72.808ZM44.5442 70.432H45.3002V75.808L48.7322 72.808H49.7402L47.1002 75.1L49.9202 79H48.9722L46.5242 75.628L45.3002 76.648V79H44.5442V70.432ZM54.9962 75.472C54.9882 75.184 54.9362 74.908 54.8402 74.644C54.7522 74.38 54.6242 74.148 54.4562 73.948C54.2882 73.74 54.0842 73.576 53.8442 73.456C53.6042 73.328 53.3322 73.264 53.0282 73.264C52.7162 73.264 52.4402 73.328 52.2002 73.456C51.9602 73.576 51.7562 73.74 51.5882 73.948C51.4202 74.148 51.2842 74.384 51.1802 74.656C51.0842 74.92 51.0202 75.192 50.9882 75.472H54.9962ZM50.9882 76.108C50.9882 76.38 51.0242 76.664 51.0962 76.96C51.1762 77.248 51.3002 77.508 51.4682 77.74C51.6362 77.972 51.8482 78.164 52.1042 78.316C52.3602 78.468 52.6682 78.544 53.0282 78.544C53.5802 78.544 54.0122 78.4 54.3242 78.112C54.6362 77.824 54.8522 77.44 54.9722 76.96H55.7282C55.5682 77.664 55.2722 78.208 54.8402 78.592C54.4162 78.976 53.8122 79.168 53.0282 79.168C52.5402 79.168 52.1162 79.084 51.7562 78.916C51.4042 78.74 51.1162 78.504 50.8922 78.208C50.6682 77.904 50.5002 77.556 50.3882 77.164C50.2842 76.764 50.2322 76.344 50.2322 75.904C50.2322 75.496 50.2842 75.096 50.3882 74.704C50.5002 74.312 50.6682 73.964 50.8922 73.66C51.1162 73.348 51.4042 73.1 51.7562 72.916C52.1162 72.724 52.5402 72.628 53.0282 72.628C53.5242 72.628 53.9482 72.728 54.3002 72.928C54.6522 73.128 54.9362 73.392 55.1522 73.72C55.3762 74.04 55.5362 74.412 55.6322 74.836C55.7282 75.252 55.7682 75.676 55.7522 76.108H50.9882ZM56.7669 72.808H57.4629V74.26H57.4869C57.6789 73.756 57.9749 73.368 58.3749 73.096C58.7829 72.824 59.2669 72.7 59.8269 72.724V73.48C59.4829 73.464 59.1709 73.512 58.8909 73.624C58.6109 73.728 58.3669 73.88 58.1589 74.08C57.9589 74.28 57.8029 74.52 57.6909 74.8C57.5789 75.072 57.5229 75.372 57.5229 75.7V79H56.7669V72.808Z" fill="black"/>
</svg>
